<svg width="24" height="24" viewBox="0 0 24 24" fill="none" xmlns="http://www.w3.org/2000/svg">
<g clip-path="url(#clip0_717_2157)">
<path fill-rule="evenodd" clip-rule="evenodd" d="M16.4155 24C13.4982 24 9.34841 23.8505 6.58092 23.8505C1.40495 23.8505 0 20.7362 0 16.7764C0 12.8167 0.0763252 8.43708 0.0763252 6.936C0.0763252 2.48741 2.01272 0.0172541 6.81272 0.0172541C8.58799 0.0172541 15.265 0 17.5378 0C21.9053 0 24 1.83465 24 7.20631C24 8.53197 23.9039 11.0137 23.9039 17.8951C23.9039 22.2229 21.894 24 16.4155 24ZM12.0339 5.72536C3.88693 5.72536 3.49399 18.3379 12.1724 18.3379C20.0989 18.3379 20.1498 5.72536 12.0339 5.72536ZM19.3979 3.22645C17.0431 3.22645 16.93 6.85261 19.4403 6.85261C21.73 6.84686 21.747 3.22645 19.3979 3.22645Z" fill="currentColor"/>
</g>
<defs>
<clipPath id="clip0_717_2157">
<rect width="24" height="24" fill="white"/>
</clipPath>
</defs>
</svg>
