<svg width="24" height="24" viewBox="0 0 24 24" fill="none" xmlns="http://www.w3.org/2000/svg">
<path d="M12.0294 0.0200094C13.3487 7.59959e-08 14.6582 0.0104049 15.967 0C16.0105 1.62556 16.6746 3.08864 17.7311 4.17235L17.7295 4.17075C18.8667 5.18802 20.3463 5.84753 21.9774 5.95958L22 5.96118V9.99186C20.4591 9.95345 19.0101 9.60048 17.7037 8.9938L17.7698 9.02101C17.138 8.71927 16.6037 8.40953 16.096 8.06376L16.1379 8.09098C16.1282 11.0115 16.1475 13.9321 16.1177 16.8423C16.0347 18.3254 15.5383 19.678 14.7421 20.8073L14.7582 20.7825C13.4268 22.6762 11.2702 23.9192 8.81788 23.9928H8.80659C8.70747 23.9976 8.59061 24 8.47295 24C7.07874 24 5.7756 23.6142 4.66507 22.9443L4.69731 22.9627C2.67611 21.755 1.2819 19.6884 1.02401 17.2849L1.02079 17.2521C1.00064 16.7518 0.990967 16.2516 1.01111 15.7618C1.40601 11.9368 4.63283 8.97779 8.55515 8.97779C8.99598 8.97779 9.42795 9.01541 9.84782 9.08664L9.80269 9.08024C9.82284 10.5601 9.76239 12.0408 9.76239 13.5207C9.4215 13.3983 9.02822 13.327 8.61802 13.327C7.11259 13.327 5.83201 14.2827 5.35814 15.6169L5.35089 15.6409C5.24371 15.9827 5.18165 16.3756 5.18165 16.7822C5.18165 16.9471 5.19213 17.1104 5.21147 17.2705L5.20986 17.2513C5.47742 18.8888 6.89097 20.1246 8.59545 20.1246C8.64461 20.1246 8.69296 20.1238 8.74132 20.1214H8.73406C9.9131 20.0862 10.9366 19.4563 11.5152 18.5254L11.5233 18.511C11.7385 18.2133 11.8859 17.8531 11.9351 17.4617L11.9359 17.4505C12.0366 15.6601 11.9964 13.8801 12.006 12.0896C12.0157 8.05896 11.9964 4.03788 12.0262 0.0176083L12.0294 0.0200094Z" fill="currentColor"/>
</svg>
