<svg width="24" height="24" viewBox="0 0 24 24" fill="none" xmlns="http://www.w3.org/2000/svg">
<path d="M9.54463 16.0859V8.91652L15.8173 12.5016L9.54463 16.0859ZM23.4967 6.65967C23.2134 5.61365 22.4132 4.80481 21.3962 4.51859L21.3746 4.51376C18.8196 4.18733 15.8645 4.0008 12.8654 4.0008C12.5605 4.0008 12.2565 4.00241 11.9532 4.00643L11.9996 4.00563C11.7419 4.00241 11.4387 4 11.1338 4C8.1347 4 5.17801 4.18653 2.27573 4.54753L2.62301 4.51215C1.58517 4.80401 0.784983 5.61204 0.507318 6.63715L0.502517 6.65806C0.182443 8.35372 0 10.3051 0 12.299C0 12.3698 3.7346e-08 12.4405 0.000800224 12.5105V12.4992C0.000800224 12.5587 0 12.6294 0 12.7002C0 14.6941 0.183243 16.6447 0.532924 18.5365L0.502517 18.3403C0.785783 19.3864 1.58597 20.1952 2.60301 20.4814L2.62461 20.4862C5.17961 20.8127 8.1347 20.9992 11.1338 20.9992C11.4379 20.9992 11.7419 20.9976 12.046 20.9936L11.9996 20.9944C12.2573 20.9976 12.5613 21 12.8654 21C15.8653 21 18.8212 20.8135 21.7235 20.4525L21.3762 20.4878C22.4148 20.1968 23.215 19.388 23.4935 18.3628L23.4983 18.3419C23.8176 16.6463 24 14.6949 24 12.7018C24 12.6311 24 12.5603 23.9992 12.4904V12.5008C23.9992 12.4413 24 12.3706 24 12.2998C24 10.3059 23.8168 8.35533 23.4671 6.46349L23.4967 6.65967Z" fill="currentColor"/>
</svg>
