<svg width="184" height="184" viewBox="0 0 184 184" fill="none" xmlns="http://www.w3.org/2000/svg">
<path d="M107.028 15.0275C107.028 23.327 100.299 30.0551 92 30.0551C83.7005 30.0551 76.9725 23.327 76.9725 15.0275C76.9725 6.72806 83.7005 0 92 0C100.299 0 107.028 6.72806 107.028 15.0275Z" fill="#000000"/>
<path d="M91.1523 77.9959C91.3189 78.7159 92.343 78.7185 92.5134 77.9995L106.649 18.334C106.753 17.895 106.42 17.4739 105.969 17.4739H78.0264C77.5767 17.4739 77.244 17.8923 77.3454 18.3304L91.1523 77.9959Z" fill="#000000"/>
<path d="M107.028 168.972C107.028 160.673 100.299 153.945 92 153.945C83.7005 153.945 76.9725 160.673 76.9725 168.972C76.9725 177.272 83.7005 184 92 184C100.299 184 107.028 177.272 107.028 168.972Z" fill="#000000"/>
<path d="M91.1523 106.004C91.3189 105.284 92.343 105.281 92.5134 106L106.649 165.666C106.753 166.105 106.42 166.526 105.969 166.526H78.0264C77.5767 166.526 77.244 166.108 77.3454 165.67L91.1523 106.004Z" fill="#000000"/>
<path d="M15.0275 76.9725C23.327 76.9725 30.0551 83.7005 30.0551 92C30.0551 100.299 23.327 107.028 15.0275 107.028C6.72806 107.028 0 100.299 0 92C0 83.7005 6.72806 76.9725 15.0275 76.9725Z" fill="#000000"/>
<path d="M77.9959 92.8477C78.7159 92.6811 78.7185 91.657 77.9995 91.4866L18.334 77.351C17.895 77.247 17.4739 77.5799 17.4739 78.0311V105.974C17.4739 106.423 17.8923 106.756 18.3304 106.655L77.9959 92.8477Z" fill="#000000"/>
<path d="M168.972 76.9725C160.673 76.9725 153.945 83.7005 153.945 92C153.945 100.299 160.673 107.028 168.972 107.028C177.272 107.028 184 100.299 184 92C184 83.7005 177.272 76.9725 168.972 76.9725Z" fill="#000000"/>
<path d="M106.004 92.8477C105.284 92.6811 105.281 91.657 106 91.4866L165.666 77.351C166.105 77.247 166.526 77.5799 166.526 78.0311V105.974C166.526 106.423 166.108 106.756 165.67 106.655L106.004 92.8477Z" fill="#000000"/>
<path d="M48.1983 26.9462C54.0669 32.8148 54.0669 42.3297 48.1983 48.1983C42.3297 54.0669 32.8148 54.0669 26.9462 48.1983C21.0776 42.3297 21.0776 32.8148 26.9462 26.9462C32.8148 21.0776 42.3297 21.0776 48.1983 26.9462Z" fill="#000000"/>
<path d="M81.4982 82.6971C82.1251 83.0883 82.8512 82.366 82.4632 81.7371L50.2687 29.5518C50.0318 29.1678 49.4986 29.1056 49.1796 29.4246L29.4212 49.1829C29.1033 49.5009 29.1639 50.032 29.5454 50.2701L81.4982 82.6971Z" fill="#000000"/>
<path d="M157.054 135.802C151.185 129.933 141.67 129.933 135.802 135.802C129.933 141.670 129.933 151.185 135.802 157.054C141.67 162.922 151.185 162.922 157.054 157.054C162.922 151.185 162.922 141.67 157.054 135.802Z" fill="#000000"/>
<path d="M101.303 102.502C100.912 101.875 101.634 101.149 102.263 101.537L154.448 133.731C154.832 133.968 154.894 134.501 154.575 134.82L134.817 154.579C134.499 154.897 133.968 154.836 133.73 154.455L101.303 102.502Z" fill="#000000"/>
<path d="M26.9462 135.802C32.8148 129.933 42.3297 129.933 48.1983 135.802C54.067 141.67 54.067 151.185 48.1983 157.054C42.3297 162.922 32.8148 162.922 26.9462 157.054C21.0776 151.185 21.0776 141.67 26.9462 135.802Z" fill="#000000"/>
<path d="M82.6971 102.502C83.0883 101.875 82.366 101.149 81.7371 101.537L29.5518 133.731C29.1679 133.968 29.1056 134.501 29.4246 134.82L49.1829 154.579C49.5009 154.897 50.032 154.836 50.2701 154.455L82.6971 102.502Z" fill="#000000"/>
<path d="M135.802 26.9462C129.933 32.8148 129.933 42.3297 135.802 48.1983C141.67 54.0669 151.185 54.0669 157.054 48.1983C162.922 42.3297 162.922 32.8148 157.054 26.9462C151.185 21.0776 141.67 21.0776 135.802 26.9462Z" fill="#000000"/>
<path d="M102.502 82.6971C101.875 83.0883 101.149 82.366 101.537 81.7371L133.731 29.5518C133.968 29.1678 134.501 29.1056 134.82 29.4246L154.579 49.1829C154.897 49.5009 154.836 50.032 154.455 50.2701L102.502 82.6971Z" fill="#000000"/>
</svg>
