<svg width="198" height="36" viewBox="0 0 198 36" fill="none" xmlns="http://www.w3.org/2000/svg">
<path d="M19.2515 5.83915C19.2515 7.32058 18.0413 8.5215 16.5484 8.5215C15.0556 8.5215 13.8454 7.32058 13.8454 5.83915C13.8454 4.35773 15.0556 3.1568 16.5484 3.1568C18.0413 3.1568 19.2515 4.35773 19.2515 5.83915Z" fill="#FFFFFF"/>
<path d="M16.396 17.0787C16.4259 17.2072 16.6102 17.2077 16.6408 17.0794L19.1834 6.42934C19.2021 6.35098 19.1423 6.27582 19.0611 6.27582H14.035C13.9541 6.27582 13.8942 6.35051 13.9125 6.4287L16.396 17.0787Z" fill="#FFFFFF"/>
<path d="M19.2515 33.3177C19.2515 31.8362 18.0413 30.6353 16.5484 30.6353C15.0556 30.6353 13.8454 31.8362 13.8454 33.3177C13.8454 34.7991 15.0556 36 16.5484 36C18.0413 36 19.2515 34.7991 19.2515 33.3177Z" fill="#FFFFFF"/>
<path d="M16.396 22.0781C16.4259 21.9496 16.6102 21.9491 16.6408 22.0774L19.1834 32.7275C19.2021 32.8058 19.1423 32.881 19.0611 32.881H14.035C13.9541 32.881 13.8942 32.8063 13.9125 32.7281L16.396 22.0781Z" fill="#FFFFFF"/>
<path d="M2.70307 16.8961C4.19594 16.8961 5.40614 18.097 5.40614 19.5784C5.40614 21.0598 4.19594 22.2608 2.70307 22.2608C1.21021 22.2608 0 21.0598 0 19.5784C0 18.097 1.21021 16.8961 2.70307 16.8961Z" fill="#FFFFFF"/>
<path d="M14.0295 19.7297C14.159 19.7 14.1595 19.5172 14.0301 19.4868L3.29781 16.9636C3.21885 16.945 3.14311 17.0045 3.14311 17.085V22.0726C3.14311 22.1529 3.21837 22.2123 3.29717 22.1942L14.0295 19.7297Z" fill="#FFFFFF"/>
<path d="M30.3938 16.8961C28.901 16.8961 27.6908 18.097 27.6908 19.5784C27.6908 21.0598 28.901 22.2608 30.3938 22.2608C31.8867 22.2608 33.0969 21.0598 33.0969 19.5784C33.0969 18.097 31.8867 16.8961 30.3938 16.8961Z" fill="#FFFFFF"/>
<path d="M19.0674 19.7297C18.9379 19.7 18.9374 19.5172 19.0668 19.4868L29.7991 16.9636C29.8781 16.945 29.9538 17.0045 29.9538 17.085V22.0726C29.9538 22.1529 29.8785 22.2123 29.7997 22.1942L19.0674 19.7297Z" fill="#FFFFFF"/>
<path d="M8.66965 7.96658C9.72526 9.0141 9.72526 10.7125 8.66965 11.76C7.61403 12.8075 5.90254 12.8075 4.84693 11.76C3.79131 10.7125 3.79131 9.0141 4.84693 7.96658C5.90254 6.91906 7.61403 6.91906 8.66965 7.96658Z" fill="#FFFFFF"/>
<path d="M14.6595 17.9179C14.7722 17.9877 14.9028 17.8588 14.833 17.7465L9.04205 8.43167C8.99944 8.36314 8.90353 8.35202 8.84615 8.40896L5.29213 11.9357C5.23493 11.9925 5.24584 12.0873 5.31446 12.1298L14.6595 17.9179Z" fill="#FFFFFF"/>
<path d="M28.25 27.3968C27.1944 26.3493 25.4829 26.3493 24.4273 27.3968C23.3716 28.4443 23.3716 30.1427 24.4273 31.1902C25.4829 32.2377 27.1944 32.2377 28.25 31.1902C29.3056 30.1427 29.3056 28.4443 28.25 27.3968Z" fill="#FFFFFF"/>
<path d="M18.2218 21.4529C18.1514 21.341 18.2814 21.2114 18.3945 21.2807L27.7813 27.0273C27.8503 27.0695 27.8616 27.1647 27.8042 27.2217L24.2501 30.7484C24.193 30.8052 24.0974 30.7944 24.0546 30.7263L18.2218 21.4529Z" fill="#FFFFFF"/>
<path d="M4.84693 27.3968C5.90255 26.3493 7.61404 26.3493 8.66965 27.3968C9.72527 28.4443 9.72527 30.1427 8.66965 31.1902C7.61404 32.2378 5.90255 32.2378 4.84693 31.1902C3.79132 30.1427 3.79132 28.4443 4.84693 27.3968Z" fill="#FFFFFF"/>
<path d="M14.8751 21.4529C14.9455 21.341 14.8155 21.2114 14.7024 21.2807L5.31562 27.0273C5.24655 27.0695 5.23535 27.1647 5.29273 27.2217L8.84676 30.7484C8.90395 30.8052 8.99948 30.7944 9.04231 30.7263L14.8751 21.4529Z" fill="#FFFFFF"/>
<path d="M24.4273 7.96658C23.3716 9.0141 23.3716 10.7125 24.4273 11.76C25.4829 12.8075 27.1944 12.8075 28.25 11.76C29.3056 10.7125 29.3056 9.0141 28.25 7.96658C27.1944 6.91906 25.4829 6.91906 24.4273 7.96658Z" fill="#FFFFFF"/>
<path d="M18.4375 17.9179C18.3247 17.9877 18.1941 17.8588 18.2639 17.7465L24.0548 8.43167C24.0975 8.36314 24.1934 8.35202 24.2508 8.40896L27.8048 11.9357C27.862 11.9925 27.8511 12.0873 27.7824 12.1298L18.4375 17.9179Z" fill="#FFFFFF"/>
<path d="M42.4446 31.0238V8.82505H45.7355V10.1469C45.7355 10.7689 45.6963 11.7214 45.6179 12.5767H45.9314C47.2046 9.91361 49.4377 8.51404 52.4544 8.51404C56.7834 8.51404 59.5258 11.3521 59.5258 16.2894V31.0238H56.0391V16.4838C56.0391 13.5486 54.374 11.6825 51.4357 11.6825C48.0861 11.6825 45.9314 14.1318 45.9314 18.3499V31.0238H42.4446Z" fill="#FFFFFF"/>
<path d="M74.1883 31.3348C67.9004 31.3348 64.6095 27.6415 64.6095 20.5853V19.0302C64.6095 12.1102 67.8612 8.51404 74.0708 8.51404C79.9865 8.51404 83.0619 11.8963 83.0619 17.9806V20.8186H68.1354C68.2138 25.9503 70.0943 28.1469 74.3254 28.1469C76.9895 28.1469 78.6349 27 79.3009 25.1922L79.3793 24.9784H82.8661L82.8465 25.095C82.2196 28.7883 79.4185 31.3348 74.1883 31.3348ZM68.155 17.8639H79.536C79.4576 13.568 77.871 11.7019 74.0708 11.7019C70.0551 11.7019 68.3313 13.4903 68.155 17.8639Z" fill="#FFFFFF"/>
<path d="M96.8625 31.3348C90.5354 31.3348 87.2445 27.6803 87.2445 20.7019V19.1274C87.2445 12.149 90.555 8.51404 96.9017 8.51404C103.19 8.51404 106.48 12.149 106.48 19.1274V20.7019C106.48 27.6803 103.19 31.3348 96.8625 31.3348ZM90.7704 20.7019C90.7704 25.6004 92.8077 28.0691 96.8625 28.0691C100.917 28.0691 102.955 25.6004 102.955 20.7019V19.1274C102.955 14.2484 100.917 11.7797 96.9017 11.7797C92.8272 11.7797 90.7704 14.2484 90.7704 19.1274V20.7019Z" fill="#FFFFFF"/>
<path d="M111.76 31.0238V8.82505H115.051V10.1469C115.051 10.7883 115.012 11.5464 114.933 12.3823H115.247C116.344 9.83585 118.342 8.51404 121.065 8.51404C124.042 8.51404 126.295 10.1469 127.039 12.9849H127.333C128.587 10.0497 130.839 8.51404 133.954 8.51404C138.381 8.51404 141.104 11.3909 141.104 16.2894V31.0238H137.617V16.4838C137.617 13.4903 136.011 11.7019 133.347 11.7019C130.075 11.7019 128.175 14.2873 128.175 18.3499V31.0238H124.688V16.4838C124.688 13.4708 123.023 11.7019 120.34 11.7019C117.069 11.7019 115.247 14.3067 115.247 18.3499V31.0238H111.76Z" fill="#FFFFFF"/>
<path d="M147.245 31.0238V8.82505H150.732V31.0238H147.245ZM146.893 4.62635V0.2527H151.104V4.62635H146.893Z" fill="#FFFFFF"/>
<path d="M157.108 31.0238V8.82505H160.399V10.1469C160.399 10.7689 160.36 11.7214 160.282 12.5767H160.595C161.868 9.91361 164.102 8.51404 167.118 8.51404C171.447 8.51404 174.19 11.3521 174.19 16.2894V31.0238H170.703V16.4838C170.703 13.5486 169.038 11.6825 166.1 11.6825C162.75 11.6825 160.595 14.1318 160.595 18.3499V31.0238H157.108Z" fill="#FFFFFF"/>
<path d="M187.638 31.3348C182.799 31.3348 179.273 27.5443 179.273 20.4881V19.1663C179.273 12.1296 182.838 8.51404 187.579 8.51404C190.439 8.51404 192.75 9.77754 194.317 12.2073H194.631C194.552 11.041 194.513 9.48596 194.513 8.51404V0H198V31.0238H194.513V30.0907C194.513 29.4687 194.552 28.5162 194.631 27.6609H194.317C192.809 30.0713 190.517 31.3348 187.638 31.3348ZM182.799 20.4881C182.799 25.3866 184.699 28.1469 188.48 28.1469C192.456 28.1469 194.513 25.1145 194.513 20.0216V19.6134C194.513 14.4622 192.437 11.7019 188.48 11.7019C184.68 11.7019 182.799 14.2678 182.799 19.1663V20.4881Z" fill="#FFFFFF"/>
</svg>
