<svg width="24" height="24" viewBox="0 0 24 24" fill="none" xmlns="http://www.w3.org/2000/svg">
<g clip-path="url(#clip0_719_2202)">
<path d="M9.30831 16.8049L8.30769 20.3077L7.30708 16.8049C7.04846 15.9001 6.56357 15.0762 5.89817 14.4108C5.23276 13.7454 4.40879 13.2605 3.504 13.0018L0 12L3.50277 10.9994C4.40756 10.7408 5.23153 10.2559 5.89693 9.59047C6.56234 8.92507 7.04723 8.1011 7.30585 7.19631L8.30769 3.69231L9.30831 7.19508C9.56693 8.09986 10.0518 8.92384 10.7172 9.58924C11.3826 10.2546 12.2066 10.7395 13.1114 10.9982L16.6154 12L13.1126 13.0006C12.2078 13.2592 11.3839 13.7441 10.7185 14.4095C10.053 15.0749 9.56816 15.8989 9.30954 16.8037L9.30831 16.8049ZM19.7034 7.95692L19.3846 9.23077L19.0658 7.95692C18.8834 7.22657 18.5059 6.55953 17.9737 6.02711C17.4415 5.4947 16.7746 5.11691 16.0443 4.93415L14.7692 4.61538L16.0443 4.29662C16.7746 4.11386 17.4415 3.73607 17.9737 3.20366C18.5059 2.67124 18.8834 2.0042 19.0658 1.27385L19.3846 0L19.7034 1.27385C19.886 2.00435 20.2636 2.67149 20.7961 3.20393C21.3285 3.73636 21.9957 4.11405 22.7262 4.29662L24 4.61538L22.7262 4.93415C21.9957 5.11672 21.3285 5.49441 20.7961 6.02684C20.2636 6.55928 19.886 7.22642 19.7034 7.95692ZM18.0234 22.544L17.5385 24L17.0535 22.544C16.9176 22.1362 16.6886 21.7656 16.3846 21.4616C16.0806 21.1576 15.71 20.9286 15.3022 20.7926L13.8462 20.3077L15.3022 19.8228C15.71 19.6868 16.0806 19.4578 16.3846 19.1538C16.6886 18.8498 16.9176 18.4792 17.0535 18.0714L17.5385 16.6154L18.0234 18.0714C18.1593 18.4792 18.3884 18.8498 18.6924 19.1538C18.9963 19.4578 19.3669 19.6868 19.7748 19.8228L21.2308 20.3077L19.7748 20.7926C19.3669 20.9286 18.9963 21.1576 18.6924 21.4616C18.3884 21.7656 18.1593 22.1362 18.0234 22.544Z" fill="currentColor"/>
</g>
<defs>
<clipPath id="clip0_719_2202">
<rect width="24" height="24" fill="white"/>
</clipPath>
</defs>
</svg>
